# xmcd
# Copyright (C) 1995-1998 Ti Kan
#
# Track frame offsets:
#       150
#       17322
#       34445
#       56944
#       72053
#       95417
#       110826
#       127929
#       145435
#       167122
#
# Disc length: 2516 seconds
#
# Revision: 0
# Processed by: cddbd v1.4PL0 Copyright (c) Steve Scherf et al.
# Submitted via: CD-Transfer v1.0
#
DISCID=8d09d20a
DTITLE=Jodyacs - Woman
DYEAR=2003
DGENRE=
TTITLE0=Russian Design
TTITLE1=Silent Cry
TTITLE2=Tempted
TTITLE3=Fire Is Burning
TTITLE4=Woman
TTITLE5=Fly Mama
TTITLE6=Sorry
TTITLE7=No More Eyes
TTITLE8=Enter Sandman
TTITLE9=Bad Boy
EXTD=
EXTT0=
EXTT1=
EXTT2=
EXTT3=
EXTT4=
EXTT5=
EXTT6=
EXTT7=
EXTT8=
EXTT9=
PLAYORDER=
